<svg width="53" height="24" viewBox="0 0 53 24" fill="none" xmlns="http://www.w3.org/2000/svg">
<g clip-path="url(#clip0_323_3)">
<path fill-rule="evenodd" clip-rule="evenodd" d="M32.9391 16.5126C29.8538 18.7867 25.3817 20.0001 21.5314 20.0001C16.1326 20.0001 11.2723 18.0033 7.59524 14.6822C7.30635 14.421 7.56519 14.0651 7.91186 14.2685C11.8801 16.5773 16.7866 17.9663 21.8549 17.9663C25.2731 17.9663 29.0333 17.2591 32.4908 15.7915C33.0131 15.5696 33.4499 16.1335 32.9391 16.5126" fill="#FF9900"/>
<path fill-rule="evenodd" clip-rule="evenodd" d="M34.2204 15.045C33.8275 14.5412 31.6134 14.807 30.6197 14.9248C30.3169 14.9618 30.2707 14.6983 30.5434 14.5088C32.3068 13.2677 35.2003 13.626 35.5378 14.042C35.8752 14.4603 35.4499 17.3608 33.7928 18.7451C33.5386 18.9578 33.296 18.8445 33.4092 18.5626C33.7813 17.6335 34.6156 15.5512 34.2204 15.045" fill="#FF9900"/>
<path fill-rule="evenodd" clip-rule="evenodd" d="M30.6902 5.74708V4.54067C30.6902 4.35809 30.8289 4.2356 30.9953 4.2356H36.3964C36.5697 4.2356 36.7084 4.3604 36.7084 4.54067V5.57374C36.7061 5.74708 36.5605 5.97357 36.3016 6.33179L33.5028 10.3277C34.5429 10.3023 35.6406 10.4572 36.5836 10.9887C36.7962 11.1089 36.854 11.2846 36.8702 11.4579V12.7452C36.8702 12.9208 36.676 13.1265 36.4726 13.0202C34.8109 12.1489 32.6038 12.0542 30.7665 13.0295C30.5793 13.1312 30.3828 12.9278 30.3828 12.7521V11.5295C30.3828 11.3331 30.3851 10.998 30.5816 10.6998L33.8241 6.04984H31.0022C30.8289 6.04984 30.6902 5.92735 30.6902 5.74708" fill="black"/>
<path fill-rule="evenodd" clip-rule="evenodd" d="M10.9875 13.2745H9.3443C9.18714 13.2629 9.06234 13.1451 9.05078 12.9948V4.56153C9.05078 4.39281 9.19176 4.25877 9.36741 4.25877H10.8997C11.0592 4.2657 11.1863 4.38819 11.1978 4.54073V5.64314H11.2279C11.6277 4.5777 12.3788 4.08081 13.3911 4.08081C14.4195 4.08081 15.062 4.5777 15.5243 5.64314C15.9218 4.5777 16.8254 4.08081 17.7938 4.08081C18.4825 4.08081 19.236 4.36508 19.6959 5.00295C20.2159 5.71247 20.1096 6.74323 20.1096 7.64689L20.1073 12.9694C20.1073 13.1381 19.9663 13.2745 19.7906 13.2745H18.1497C17.9856 13.2629 17.8539 13.1312 17.8539 12.9694V8.4997C17.8539 8.14378 17.8863 7.25631 17.8077 6.91888C17.6852 6.35266 17.3177 6.19319 16.8416 6.19319C16.4441 6.19319 16.0281 6.45897 15.8594 6.88422C15.6907 7.30946 15.7069 8.02129 15.7069 8.4997V12.9694C15.7069 13.1381 15.5659 13.2745 15.3902 13.2745H13.7493C13.5829 13.2629 13.4535 13.1312 13.4535 12.9694L13.4512 8.4997C13.4512 7.55907 13.606 6.1747 12.4389 6.1747C11.2579 6.1747 11.3041 7.5244 11.3041 8.4997V12.9694C11.3041 13.1381 11.1632 13.2745 10.9875 13.2745" fill="black"/>
<path fill-rule="evenodd" clip-rule="evenodd" d="M41.358 4.08081C43.7962 4.08081 45.1159 6.1747 45.1159 8.83713C45.1159 11.4094 43.6575 13.4502 41.358 13.4502C38.9636 13.4502 37.6602 11.3563 37.6602 8.74699C37.6602 6.12154 38.9798 4.08081 41.358 4.08081V4.08081ZM41.3718 5.80261C40.1608 5.80261 40.0845 7.45276 40.0845 8.48121C40.0845 9.51198 40.0684 11.7122 41.358 11.7122C42.6314 11.7122 42.6915 9.93723 42.6915 8.85561C42.6915 8.14379 42.6615 7.29329 42.4465 6.61844C42.2616 6.03141 41.8942 5.80261 41.3718 5.80261" fill="black"/>
<path fill-rule="evenodd" clip-rule="evenodd" d="M48.2762 13.2745H46.6399C46.4758 13.2629 46.3441 13.1312 46.3441 12.9694L46.3418 4.53379C46.3557 4.37895 46.492 4.25877 46.6584 4.25877H48.1814C48.3247 4.2657 48.4426 4.36277 48.475 4.4945V5.78411H48.505C48.9649 4.63086 49.6097 4.08081 50.7445 4.08081C51.4817 4.08081 52.2005 4.34659 52.6627 5.0746C53.0926 5.74945 53.0926 6.88421 53.0926 7.70004V13.0087C53.0741 13.1566 52.9377 13.2745 52.776 13.2745H51.1281C50.9779 13.2629 50.8531 13.152 50.8369 13.0087V8.42805C50.8369 7.50591 50.9432 6.15621 49.8085 6.15621C49.4087 6.15621 49.0412 6.4243 48.8586 6.83106C48.6275 7.34644 48.5975 7.85951 48.5975 8.42805V12.9694C48.5951 13.1381 48.4519 13.2745 48.2762 13.2745" fill="black"/>
<path fill-rule="evenodd" clip-rule="evenodd" d="M26.3848 9.24652C26.3848 9.88671 26.401 10.4206 26.0774 10.9891C25.8163 11.4513 25.4003 11.7356 24.9403 11.7356C24.3094 11.7356 23.9396 11.2549 23.9396 10.5454C23.9396 9.14483 25.1946 8.89061 26.3848 8.89061V9.24652V9.24652ZM28.0419 13.2517C27.9333 13.3488 27.7761 13.3557 27.6536 13.291C27.1082 12.838 27.0088 12.6277 26.7107 12.1955C25.8093 13.1154 25.1691 13.3904 24.002 13.3904C22.6176 13.3904 21.543 12.5376 21.543 10.8297C21.543 9.49612 22.264 8.58785 23.2948 8.14411C24.1869 7.75122 25.4326 7.68188 26.3848 7.57326V7.36064C26.3848 6.97005 26.4149 6.50783 26.1837 6.1704C25.985 5.86764 25.6013 5.74284 25.2616 5.74284C24.6353 5.74284 24.0783 6.06409 23.9419 6.72969C23.9142 6.87761 23.8056 7.02321 23.6554 7.03014L22.063 6.85912C21.9289 6.82907 21.7787 6.72045 21.818 6.51476C22.1832 4.58265 23.9304 4.00024 25.4927 4.00024C26.2924 4.00024 27.337 4.21287 27.9679 4.81839C28.7676 5.56488 28.6913 6.56098 28.6913 7.64491V10.2056C28.6913 10.9753 29.0103 11.3127 29.3107 11.7287C29.4147 11.8766 29.4378 12.0545 29.3038 12.1655C28.9687 12.4451 28.3724 12.9651 28.0442 13.2563L28.0419 13.2517" fill="black"/>
<path fill-rule="evenodd" clip-rule="evenodd" d="M4.84183 9.24652C4.84183 9.88671 4.858 10.4206 4.53445 10.9891C4.27329 11.4513 3.85959 11.7356 3.39737 11.7356C2.76643 11.7356 2.39896 11.2549 2.39896 10.5454C2.39896 9.14483 3.6539 8.89061 4.84183 8.89061V9.24652V9.24652ZM6.49891 13.2517C6.39029 13.3488 6.23313 13.3557 6.11064 13.291C5.56521 12.838 5.46814 12.6277 5.1677 12.1955C4.26635 13.1154 3.62848 13.3904 2.45905 13.3904C1.07699 13.3904 0 12.5376 0 10.8297C0 9.49613 0.723385 8.58785 1.75184 8.14411C2.64394 7.75122 3.88964 7.68188 4.84183 7.57326V7.36064C4.84183 6.97005 4.87187 6.50783 4.64307 6.1704C4.442 5.86764 4.05835 5.74284 3.72093 5.74284C3.09461 5.74284 2.53531 6.06409 2.39896 6.7297C2.37122 6.87761 2.2626 7.02321 2.11469 7.03014L0.520005 6.85912C0.385959 6.82908 0.238046 6.72045 0.275025 6.51476C0.642495 4.58265 2.3874 4.00024 3.94973 4.00024C4.74938 4.00024 5.79401 4.21287 6.42495 4.81839C7.22461 5.56488 7.14834 6.56098 7.14834 7.64491V10.2056C7.14834 10.9753 7.46728 11.3127 7.76772 11.7287C7.87404 11.8766 7.89715 12.0546 7.7631 12.1655C7.42799 12.4451 6.83171 12.9651 6.50353 13.2563L6.49891 13.2517" fill="black"/>
</g>
<defs>
<clipPath id="clip0_323_3">
<rect width="53" height="24" fill="white"/>
</clipPath>
</defs>
</svg>
