<svg width="91" height="24" viewBox="0 0 91 24" fill="none" xmlns="http://www.w3.org/2000/svg">
<g clip-path="url(#clip0_323_12)">
<path fill-rule="evenodd" clip-rule="evenodd" d="M-0.425781 2.19214H8.85412L8.8534 11.472H-0.425781V2.19214Z" fill="#F65314"/>
<path fill-rule="evenodd" clip-rule="evenodd" d="M9.80482 2.19214H19.0847C19.0847 5.28544 19.0853 8.37874 19.0842 11.472C15.9914 11.4715 12.8981 11.472 9.80536 11.472C9.80428 8.37874 9.80482 5.28544 9.80482 2.19214Z" fill="#7FBB41"/>
<path fill-rule="evenodd" clip-rule="evenodd" d="M83.257 5.72839C84.1126 5.17165 85.218 5.11963 86.182 5.38495C86.1905 5.95807 86.1831 6.53155 86.1858 7.10485C85.7277 6.90325 85.1886 6.77167 84.7068 6.96949C84.3243 7.12123 84.0967 7.51363 84.0373 7.90585C83.9655 8.40355 84.0121 8.90791 83.9999 9.40849C84.9787 9.41065 85.9574 9.40903 86.9361 9.40957C86.9434 8.77417 86.9283 8.13823 86.9445 7.50283C87.61 7.31365 88.2681 7.10107 88.9303 6.90163C88.9359 7.73863 88.9226 8.57635 88.9377 9.41407C89.5992 9.40453 90.2614 9.41191 90.9234 9.40957V11.0395C90.259 11.0119 89.5941 11.0319 88.9299 11.0298C88.9326 11.9668 88.9303 12.9037 88.9308 13.841C88.9414 14.3599 88.9031 14.8816 88.9638 15.3989C89.0005 15.7038 89.1115 16.0417 89.3972 16.1994C89.8762 16.4674 90.4837 16.3504 90.9234 16.0561V17.7018C90.3498 17.9509 89.709 18.0269 89.0887 17.9828C88.4999 17.9392 87.8904 17.7254 87.5063 17.257C87.0626 16.7282 86.9485 16.012 86.9395 15.342C86.9344 13.9042 86.94 12.4662 86.9373 11.0276C85.9579 11.0269 84.9787 11.0265 83.9999 11.0281C83.9988 13.2848 83.9994 15.5416 83.9994 17.7985H81.9924C81.9924 15.542 81.9895 13.2866 81.9934 11.0305C81.528 11.0215 81.0621 11.0326 80.5968 11.0231C80.5984 10.4876 80.6006 9.95137 80.5956 9.41515C81.0589 9.40453 81.5226 9.40903 81.987 9.41245C82.0208 8.70001 81.9123 7.96723 82.1252 7.27333C82.305 6.64693 82.7053 6.08173 83.257 5.72839V5.72839ZM40.2863 5.84539C40.6909 5.78401 41.1289 5.92225 41.3971 6.23887C41.7115 6.58555 41.7695 7.13725 41.5364 7.54261C41.2788 7.99945 40.7026 8.21185 40.2004 8.10223C39.6793 8.00863 39.2452 7.52407 39.2684 6.98407C39.2535 6.41563 39.7288 5.90893 40.2863 5.84521V5.84539ZM24.9049 6.09397H27.8238C28.7323 8.40103 29.6474 10.7054 30.5571 13.0123C30.7895 13.5894 31.0069 14.1727 31.2505 14.7451C32.4192 11.8626 33.6047 8.98729 34.7644 6.10063C35.7004 6.08551 36.6366 6.09721 37.573 6.09505C37.5708 9.99601 37.5719 13.8968 37.5726 17.7978C36.8971 17.7961 36.2221 17.8035 35.5471 17.7938C35.5543 14.9152 35.5465 12.0365 35.5505 9.15721C35.5516 9.02779 35.5471 8.89837 35.5381 8.76931C35.4985 8.82943 35.4636 8.89189 35.433 8.95669C34.2729 11.9031 33.0908 14.8414 31.9377 17.7909C31.4573 17.8084 30.9763 17.7922 30.4952 17.7997C29.2987 14.8533 28.117 11.8999 26.9265 8.95093C26.8952 8.88955 26.8619 8.82997 26.8255 8.77273C26.801 10.0338 26.8217 11.2962 26.8151 12.5576C26.8154 14.3043 26.814 16.051 26.8154 17.7978C26.1786 17.7994 25.5416 17.7978 24.9049 17.7985C24.9044 13.8968 24.9038 9.99529 24.9049 6.09397V6.09397ZM45.8098 9.40183C46.7782 9.12589 47.8229 9.13705 48.791 9.41065C48.9906 9.46645 49.1837 9.54385 49.3635 9.64933C49.3522 10.2885 49.3635 10.9284 49.3572 11.5683C48.71 11.0739 47.8891 10.7607 47.0665 10.8643C46.4131 10.9234 45.7902 11.2623 45.3996 11.7901C44.8972 12.4444 44.7813 13.3132 44.8678 14.1137C44.9325 14.7401 45.1915 15.3661 45.6787 15.7814C46.1847 16.231 46.8941 16.3903 47.5563 16.3403C48.2108 16.2651 48.8284 15.9879 49.3572 15.601C49.3628 16.2069 49.3544 16.8128 49.3617 17.4187C48.5411 17.907 47.5576 18.0328 46.6183 17.9869C45.6575 17.936 44.6994 17.572 44.0038 16.8965C43.248 16.168 42.8378 15.1291 42.7892 14.0887C42.7402 13.0067 42.9604 11.8781 43.583 10.9747C44.1046 10.2037 44.9208 9.65815 45.8098 9.40183V9.40183ZM67.7331 9.27421C68.6612 9.11077 69.6326 9.23065 70.5109 9.56347C70.5121 10.1789 70.5109 10.7934 70.5114 11.4083C69.8978 10.9864 69.1481 10.7594 68.4034 10.7857C68.0285 10.8003 67.6161 10.9592 67.4449 11.3158C67.3088 11.6686 67.4032 12.1312 67.736 12.3425C68.3048 12.7232 68.9837 12.8848 69.5734 13.2258C70.0376 13.4868 70.488 13.8277 70.7234 14.3194C71.1653 15.2401 70.9781 16.4569 70.2009 17.1436C69.4593 17.8368 68.3908 18.0285 67.4082 17.9918C66.7103 17.9466 66.0092 17.8089 65.3677 17.5234C65.3706 16.8765 65.3638 16.23 65.371 15.5834C65.9106 15.9753 66.533 16.2555 67.1918 16.3693C67.6507 16.4438 68.1496 16.4474 68.5769 16.2422C68.9861 16.0388 69.0595 15.4574 68.8167 15.1017C68.5892 14.8276 68.2553 14.6767 67.9405 14.5284C67.3492 14.2626 66.7276 14.0401 66.2083 13.6417C65.8431 13.3568 65.5666 12.9556 65.4586 12.5029C65.2981 11.8358 65.3481 11.0839 65.736 10.5009C66.1792 9.82141 66.9488 9.41407 67.7331 9.27421ZM53.8511 9.53845C54.405 9.20563 55.109 9.17773 55.7138 9.38131C55.7111 10.0507 55.7138 10.7198 55.7121 11.3892C55.3163 11.1331 54.8226 11.0231 54.3557 11.0706C53.7858 11.1352 53.3343 11.5726 53.1005 12.0745C52.8462 12.6055 52.7983 13.2061 52.8143 13.787C52.8143 15.124 52.815 16.4613 52.8143 17.7985H50.8358C50.8341 15.0038 50.8381 12.2088 50.8341 9.41407C51.4946 9.40561 52.1552 9.40903 52.8156 9.41227C52.8129 9.89233 52.8156 10.372 52.814 10.8526C53.0285 10.3305 53.3478 9.82321 53.8511 9.53827V9.53845ZM39.4507 9.41227C40.1162 9.40957 40.7824 9.40309 41.4477 9.41569C41.4399 12.21 41.4473 15.0043 41.4444 17.7985H39.4518C39.4502 15.0033 39.4525 12.208 39.4507 9.41245V9.41227ZM59.4074 9.25747C60.3705 9.13489 61.3865 9.18961 62.2805 9.59641C63.0563 9.94633 63.6851 10.5934 64.0334 11.3683C64.4049 12.1927 64.4954 13.1194 64.4324 14.014C64.3705 14.8872 64.0964 15.7623 63.5501 16.4562C62.9912 17.1931 62.1486 17.6925 61.2461 17.878C60.4746 18.0386 59.6676 18.0379 58.8962 17.8759C57.9733 17.6784 57.1188 17.1429 56.5776 16.3637C55.9424 15.4608 55.7618 14.3128 55.8425 13.2308C55.897 12.3128 56.1825 11.3876 56.7689 10.6676C57.411 9.86101 58.3959 9.38509 59.4074 9.25747V9.25747ZM60.0059 10.8505C59.5262 10.8771 59.0412 11.0395 58.6856 11.3714C58.1951 11.8158 57.971 12.4779 57.9103 13.1215C57.8433 13.8295 57.8918 14.5758 58.2152 15.2211C58.4665 15.7222 58.9286 16.1158 59.4731 16.2589C60.0082 16.3977 60.5905 16.386 61.1089 16.1869C61.5519 16.0143 61.9031 15.6496 62.0949 15.2184C62.3846 14.5785 62.4132 13.859 62.3775 13.1685C62.3279 12.5373 62.1486 11.8759 61.6845 11.42C61.2511 10.9813 60.609 10.8109 60.0059 10.8505ZM75.404 9.25459C76.4055 9.13057 77.469 9.19771 78.383 9.65941C79.1802 10.0579 79.7982 10.7781 80.1067 11.6106C80.3482 12.2476 80.433 12.9354 80.4188 13.6137C80.4206 14.6269 80.147 15.6669 79.5111 16.4706C78.9158 17.2488 78.0052 17.7544 77.0436 17.9131C76.1035 18.0652 75.11 18.0258 74.2167 17.6741C73.3117 17.3181 72.5593 16.591 72.1778 15.6959C71.7806 14.7837 71.7386 13.7569 71.8625 12.7822C71.9923 11.8072 72.4338 10.8543 73.1862 10.2061C73.8027 9.66499 74.5963 9.35845 75.404 9.25459V9.25459ZM75.9458 10.8521C75.3905 10.8832 74.8399 11.1225 74.4809 11.5548C74.0875 12.0181 73.9184 12.6294 73.8727 13.2252C73.8256 13.8405 73.8727 14.4777 74.1107 15.0528C74.3087 15.5355 74.6845 15.9551 75.1691 16.1603C75.6185 16.3538 76.1247 16.3882 76.6049 16.3164C77.0526 16.2505 77.4862 16.0366 77.7778 15.6855C78.0669 15.3361 78.2195 14.8956 78.2964 14.4543C78.3936 13.8617 78.3947 13.2515 78.2799 12.6618C78.178 12.1591 77.9555 11.6598 77.5536 11.3264C77.118 10.9435 76.5126 10.8127 75.9458 10.8521V10.8521Z" fill="#787878"/>
<path fill-rule="evenodd" clip-rule="evenodd" d="M-0.425781 12.4197C2.66751 12.4208 5.76081 12.4193 8.85411 12.4208C8.85465 15.5141 8.85411 18.6069 8.85411 21.7002H-0.425781V12.4197Z" fill="#00A1F1"/>
<path fill-rule="evenodd" clip-rule="evenodd" d="M9.80523 12.4211C12.898 12.42 15.9913 12.4205 19.0846 12.4205V21.7004H9.80469C9.80523 18.6071 9.80415 15.5138 9.80523 12.4211V12.4211Z" fill="#FFBB00"/>
</g>
<defs>
<clipPath id="clip0_323_12">
<rect width="91" height="24" fill="white"/>
</clipPath>
</defs>
</svg>
