<svg width="92" height="24" viewBox="0 0 92 24" fill="none" xmlns="http://www.w3.org/2000/svg">
<g clip-path="url(#clip0_323_36)">
<path d="M6.10156 21.8229L11.3927 18.7596V12.6077L6.10156 15.671V21.8229Z" fill="#333333"/>
<path d="M5.39263 21.8229V15.671L0.0761719 12.6077V18.7596L5.39263 21.8229Z" fill="#333333"/>
<path d="M23.0879 5.06329L17.7461 2L12.4297 5.06329L17.7461 8.1519L23.0879 5.06329Z" fill="#333333"/>
<path d="M11.0646 12.0001L5.7481 8.93677L0.431641 12.0001L5.7481 15.0887L11.0646 12.0001Z" fill="#333333"/>
<path d="M18.127 14.8861L23.3928 11.8228V5.6709L18.127 8.73419V14.8861Z" fill="#333333"/>
<path d="M6.43164 8.53166L11.3937 11.4177V5.6709L6.43164 8.53166Z" fill="#333333"/>
<path d="M12.0762 18.3547L17.0888 15.4686C15.4179 14.5066 13.7471 13.5699 12.0762 12.5825V18.3547Z" fill="#333333"/>
<path d="M12.1016 5.6709V11.4177L17.0889 8.53166L12.1016 5.6709Z" fill="#333333"/>
<path d="M17.417 9.13916L12.4297 11.9999L17.417 14.886V9.13916Z" fill="#333333"/>
</g>
<path d="M34.0531 8.43013H31.088V16.4625H30.1159V8.43013H27.1387V7.55519H34.0531V8.43013Z" fill="#333333"/>
<path d="M40.5439 16.4625H35.3308V7.55519H40.5439V8.43013H36.3029V11.5046H40.1186V12.3795H36.3029V15.5876H40.5439V16.4625Z" fill="#333333"/>
<path d="M46.9385 14.0565C46.9385 14.7775 46.6752 15.3851 46.1486 15.8793C45.6301 16.3653 44.9861 16.6084 44.2165 16.6084C43.3415 16.6084 42.4828 16.3329 41.6403 15.782L42.1142 14.9314C42.8514 15.458 43.5684 15.7213 44.2651 15.7213C44.8078 15.7213 45.221 15.5714 45.5046 15.2717C45.7962 14.9719 45.942 14.6033 45.942 14.1658C45.942 13.7608 45.8246 13.4246 45.5896 13.1572C45.3547 12.8818 44.8848 12.5901 44.18 12.2823C43.4104 11.942 42.8635 11.5856 42.5395 11.2129C42.2235 10.8403 42.0656 10.3825 42.0656 9.83975C42.0656 9.17545 42.3208 8.60431 42.8311 8.12633C43.3415 7.64836 43.9937 7.40937 44.7876 7.40937C45.5248 7.40937 46.1851 7.6119 46.7684 8.01696L46.3309 8.8433C45.8286 8.47874 45.2939 8.29646 44.7268 8.29646C44.1922 8.29646 43.7749 8.43823 43.4752 8.72178C43.1835 9.00532 43.0377 9.36178 43.0377 9.79115C43.0377 10.1071 43.1552 10.3947 43.3901 10.6539C43.6332 10.9132 44.022 11.1643 44.5567 11.4074C45.4803 11.8205 46.1081 12.2175 46.4403 12.5982C46.7724 12.9709 46.9385 13.457 46.9385 14.0565Z" fill="#333333"/>
<path d="M53.0382 14.0565C53.0382 14.7775 52.7749 15.3851 52.2483 15.8793C51.7298 16.3653 51.0858 16.6084 50.3161 16.6084C49.4412 16.6084 48.5825 16.3329 47.7399 15.782L48.2139 14.9314C48.9511 15.458 49.668 15.7213 50.3647 15.7213C50.9075 15.7213 51.3207 15.5714 51.6042 15.2717C51.8959 14.9719 52.0417 14.6033 52.0417 14.1658C52.0417 13.7608 51.9242 13.4246 51.6893 13.1572C51.4544 12.8818 50.9845 12.5901 50.2797 12.2823C49.5101 11.942 48.9632 11.5856 48.6392 11.2129C48.3232 10.8403 48.1653 10.3825 48.1653 9.83975C48.1653 9.17545 48.4204 8.60431 48.9308 8.12633C49.4412 7.64836 50.0934 7.40937 50.8873 7.40937C51.6245 7.40937 52.2847 7.6119 52.868 8.01696L52.4306 8.8433C51.9283 8.47874 51.3936 8.29646 50.8265 8.29646C50.2918 8.29646 49.8746 8.43823 49.5749 8.72178C49.2832 9.00532 49.1374 9.36178 49.1374 9.79115C49.1374 10.1071 49.2549 10.3947 49.4898 10.6539C49.7328 10.9132 50.1217 11.1643 50.6564 11.4074C51.5799 11.8205 52.2078 12.2175 52.5399 12.5982C52.8721 12.9709 53.0382 13.457 53.0382 14.0565Z" fill="#333333"/>
<path d="M59.7211 16.4625H54.508V7.55519H59.7211V8.43013H55.4801V11.5046H59.2958V12.3795H55.4801V15.5876H59.7211V16.4625Z" fill="#333333"/>
<path d="M67.6225 16.4625H66.4438L64.0742 12.9506C63.8149 12.9668 63.6165 12.9749 63.4787 12.9749C63.1952 12.9749 62.859 12.9668 62.4701 12.9506V16.4625H61.498V7.64026C62.2514 7.54304 62.9359 7.49443 63.5516 7.49443C64.6615 7.49443 65.5081 7.74152 66.0914 8.2357C66.6828 8.72178 66.9785 9.36583 66.9785 10.1679C66.9785 10.7917 66.8084 11.3263 66.4681 11.7719C66.1359 12.2175 65.658 12.5415 65.0342 12.7441L67.6225 16.4625ZM65.9334 10.2286C65.9334 9.68583 65.7349 9.24026 65.338 8.8919C64.9491 8.54355 64.4023 8.36937 63.6975 8.36937C63.1628 8.36937 62.7537 8.40178 62.4701 8.46659V12.0879C62.7942 12.1284 63.1547 12.1486 63.5516 12.1486C64.3537 12.1486 64.9491 11.9785 65.338 11.6382C65.7349 11.298 65.9334 10.8281 65.9334 10.2286Z" fill="#333333"/>
<path d="M75.9435 16.4625H74.8985L73.8413 13.9957H69.8554L68.7982 16.4625H67.7896L71.7876 7.39722H71.9456L75.9435 16.4625ZM73.4889 13.1815L71.8484 9.35368L70.2078 13.1815H73.4889Z" fill="#333333"/>
<path d="M83.9685 15.7577C83.0531 16.3248 82.0728 16.6084 81.0278 16.6084C79.6506 16.6084 78.5164 16.179 77.6252 15.3203C76.7422 14.4534 76.3007 13.3517 76.3007 12.0149C76.3007 10.7025 76.7503 9.60887 77.6496 8.73393C78.5569 7.85089 79.683 7.40937 81.0278 7.40937C82.0728 7.40937 83.0531 7.69291 83.9685 8.26L83.5675 9.08633C82.6845 8.57595 81.8096 8.32076 80.9427 8.32076C79.8409 8.32076 78.966 8.66912 78.3179 9.36583C77.6779 10.0544 77.3579 10.9375 77.3579 12.0149C77.3579 13.0843 77.6901 13.9674 78.3544 14.6641C79.0268 15.3527 79.9179 15.697 81.0278 15.697C81.9027 15.697 82.7777 15.4418 83.6526 14.9314L83.9685 15.7577Z" fill="#333333"/>
<path d="M91.5254 8.43013H88.5603V16.4625H87.5882V8.43013H84.611V7.55519H91.5254V8.43013Z" fill="#333333"/>
<defs>
<clipPath id="clip0_323_36">
<rect width="23.5443" height="20" fill="white" transform="translate(0 2)"/>
</clipPath>
</defs>
</svg>
