<svg width="58" height="24" viewBox="0 0 58 24" fill="none" xmlns="http://www.w3.org/2000/svg">
<g clip-path="url(#clip0_323_19)">
<path d="M17.75 15.9998V6.62484L9.625 1.93734V5.5415L12.8125 7.37484C12.9375 7.43734 12.9375 7.62484 12.8125 7.68734L9.02083 9.87484C8.91666 9.93734 8.77083 9.93734 8.66666 9.87484L4.875 7.6665C4.75 7.604 4.75 7.4165 4.875 7.354L8.0625 5.52067V1.9165L-0.0625 6.604V15.9998V15.9582V15.9998L3.0625 14.2082V10.5207C3.0625 10.3957 3.20833 10.2915 3.33333 10.3748L7.125 12.5623C7.22916 12.6248 7.3125 12.7498 7.3125 12.8748V17.2498C7.3125 17.3748 7.16666 17.479 7.04166 17.3957L3.85416 15.5623L0.729167 17.354L8.85416 22.0415L16.9792 17.354L13.8542 15.5623L10.6667 17.3957C10.5625 17.4582 10.3958 17.3748 10.3958 17.2498V12.8748C10.3958 12.7498 10.4583 12.6248 10.5833 12.5623L14.375 10.3748C14.4792 10.3123 14.6458 10.3957 14.6458 10.5207V14.2082L17.75 15.9998Z" fill="#4C4C4C"/>
<path d="M8.83203 22.0623L16.957 17.3748L13.832 15.5831L10.6445 17.4164C10.5404 17.4789 10.3737 17.3956 10.3737 17.2706V12.8956C10.3737 12.7706 10.4362 12.6456 10.5612 12.5831L14.3529 10.3956C14.457 10.3331 14.6237 10.4164 14.6237 10.5414V14.2289L17.7487 16.0206V6.62476L8.83203 11.7706V22.0623Z" fill="black"/>
<path d="M9.60416 1.9165V5.52067L12.7917 7.354C12.9167 7.4165 12.9167 7.604 12.7917 7.6665L9 9.854C8.89583 9.9165 8.75 9.9165 8.64583 9.854L4.875 7.6665C4.75 7.604 4.75 7.4165 4.875 7.354L8.0625 5.52067V1.9165L-0.0625 6.604L8.85416 11.7498L17.7708 6.604L9.60416 1.9165Z" fill="#808080"/>
<path d="M6.99935 17.3956L3.81185 15.5623L0.686849 17.3539L8.81185 22.0414V11.7498L-0.0839844 6.62476V16.0206V15.9789V16.0206L3.04101 14.2289V10.5414C3.04101 10.4164 3.18685 10.3123 3.31185 10.3956L7.10351 12.5831C7.20768 12.6456 7.29101 12.7706 7.29101 12.8956V17.2706C7.27018 17.3748 7.12435 17.4581 6.99935 17.3956Z" fill="#4C4C4C"/>
<path d="M22.4355 12.8748V7.1665H24.8314V12.9582C24.8314 13.8957 25.3105 14.5415 26.498 14.5415C27.6022 14.5415 28.1439 13.8748 28.1439 12.9165V7.1665H30.5397V12.8748C30.5397 15.104 29.2064 16.4582 26.498 16.4582C23.7897 16.4582 22.4355 15.1457 22.4355 12.8748Z" fill="black"/>
<path d="M31.6445 9.35384H33.7695V10.2913H33.8112C34.332 9.54134 34.9987 9.14551 35.957 9.14551C37.4779 9.14551 38.3737 10.2288 38.3737 11.7705V16.2705H36.1654V12.2288C36.1654 11.4997 35.7904 10.9997 35.082 10.9997C34.3529 10.9997 33.8737 11.6038 33.8737 12.458V16.2913H31.6654V9.35384H31.6445Z" fill="black"/>
<path d="M39.5 6.62476H41.7083V8.41642H39.5V6.62476ZM39.5 9.35392H41.7083V16.2914H39.5V9.35392Z" fill="black"/>
<path d="M43.4382 14.4582V11.1457H42.5215V9.354H43.4382V7.1665H45.584V9.354H46.834V11.1457H45.584V13.979C45.584 14.5207 45.8757 14.6457 46.3548 14.6457C46.5423 14.6457 46.7507 14.6248 46.834 14.6248V16.229C46.6465 16.2915 46.2298 16.3332 45.6257 16.3332C44.3548 16.3748 43.4382 15.9582 43.4382 14.4582Z" fill="black"/>
<path d="M48.2077 16.854H48.9577C49.6035 16.854 49.8743 16.604 49.8743 16.1248C49.8743 15.8332 49.7493 15.4165 49.4577 14.6873L47.416 9.354H49.7493L50.6868 12.3123C50.8952 12.979 51.1243 13.9165 51.1243 13.9165H51.1452C51.1452 13.9165 51.3327 12.9998 51.541 12.3123L52.4577 9.354H54.666L52.2702 16.3748C51.7077 17.9998 51.0618 18.5623 49.666 18.5623H48.2285V16.854H48.2077Z" fill="black"/>
<path d="M57.6875 9.89567C57.6458 9.7915 57.5833 9.68734 57.5 9.604C57.4167 9.52067 57.3333 9.45817 57.2083 9.4165C57.1042 9.37484 56.9792 9.354 56.875 9.354C56.7708 9.354 56.6458 9.37484 56.5417 9.4165C56.4375 9.45817 56.3333 9.52067 56.25 9.604C56.1667 9.68734 56.1042 9.77067 56.0625 9.89567C56.0208 9.99984 56 10.1248 56 10.229C56 10.354 56.0208 10.4582 56.0625 10.5623C56.1042 10.6665 56.1667 10.7707 56.25 10.854C56.3333 10.9373 56.4167 10.9998 56.5417 11.0415C56.6458 11.0832 56.7708 11.104 56.875 11.104C56.9792 11.104 57.1042 11.0832 57.2083 11.0415C57.3125 10.9998 57.4167 10.9373 57.5 10.854C57.5833 10.7707 57.6458 10.6873 57.6875 10.5623C57.7292 10.4582 57.75 10.3332 57.75 10.229C57.75 10.1248 57.7292 9.99984 57.6875 9.89567ZM57.4583 10.5832C57.3958 10.6873 57.3125 10.7707 57.2083 10.8332C57.1042 10.8957 57 10.9165 56.875 10.9165C56.75 10.9165 56.6458 10.8957 56.5417 10.8332C56.4375 10.7707 56.3542 10.6873 56.2917 10.5832C56.2292 10.479 56.2083 10.3748 56.2083 10.2498C56.2083 10.1248 56.2292 10.0207 56.2917 9.9165C56.3542 9.81234 56.4375 9.729 56.5417 9.6665C56.6458 9.604 56.75 9.58317 56.875 9.58317C57 9.58317 57.1042 9.604 57.2083 9.6665C57.3125 9.729 57.3958 9.81234 57.4583 9.9165C57.5208 10.0207 57.5417 10.1248 57.5417 10.2498C57.5417 10.3748 57.5208 10.479 57.4583 10.5832Z" fill="black"/>
<path d="M57.1856 10.2498C57.2064 10.2082 57.2272 10.1665 57.2272 10.104C57.2272 10.0415 57.2064 9.99984 57.1856 9.95817C57.1647 9.9165 57.1231 9.89567 57.0814 9.87484C57.0397 9.854 56.9981 9.854 56.9772 9.854H56.5605V10.6665H56.7481V10.3957H56.9356L57.0814 10.6665H57.2689L57.1022 10.354C57.1231 10.3123 57.1647 10.2707 57.1856 10.2498ZM56.7481 9.95817H56.9147C56.9356 9.95817 56.9564 9.95817 56.9981 9.979C57.0189 9.99984 57.0397 10.0207 57.0397 10.0832C57.0397 10.1248 57.0189 10.1665 56.9981 10.1873C56.9772 10.2082 56.9356 10.229 56.9147 10.229H56.7481V9.95817Z" fill="black"/>
</g>
<defs>
<clipPath id="clip0_323_19">
<rect width="58" height="24" fill="white"/>
</clipPath>
</defs>
</svg>
